<svg width="70" height="70" viewBox="0 0 70 70" fill="none" xmlns="http://www.w3.org/2000/svg">
<circle cx="35" cy="35" r="35" fill="#de1d25"/>
<g clip-path="url(#clip0)">
<path d="M42.9047 18.3438H26.8531C21.6289 18.3438 17.3789 22.4364 17.3789 27.467V42.9244C17.3789 47.9548 21.6289 52.0474 26.8531 52.0474H42.9049C48.1288 52.0474 52.3788 47.9548 52.3788 42.9244V27.467C52.3788 22.4364 48.1288 18.3438 42.9047 18.3438V18.3438ZM50.327 42.9244C50.327 46.8653 46.9974 50.0715 42.9047 50.0715H26.8531C22.7603 50.0715 19.4308 46.8653 19.4308 42.9244V27.467C19.4308 23.5259 22.7603 20.3196 26.8531 20.3196H42.9049C46.9974 20.3196 50.327 23.5259 50.327 27.467V42.9244Z" fill="white"/>
<path d="M34.8786 25.9805C29.6016 25.9805 25.3086 30.1145 25.3086 35.1961C25.3086 40.2776 29.6016 44.4116 34.8786 44.4116C40.1556 44.4116 44.4486 40.2776 44.4486 35.1961C44.4486 30.1145 40.1556 25.9805 34.8786 25.9805ZM34.8786 42.4358C30.7333 42.4358 27.3604 39.1881 27.3604 35.1961C27.3604 31.2042 30.7333 27.9563 34.8786 27.9563C39.0242 27.9563 42.3968 31.2042 42.3968 35.1961C42.3968 39.1881 39.0242 42.4358 34.8786 42.4358Z" fill="white"/>
<path d="M44.6774 22.707C43.118 22.707 41.8496 23.9287 41.8496 25.4301C41.8496 26.9318 43.118 28.1535 44.6774 28.1535C46.2369 28.1535 47.5055 26.9318 47.5055 25.4301C47.5055 23.9284 46.2369 22.707 44.6774 22.707ZM44.6774 26.1774C44.2497 26.1774 43.9015 25.8421 43.9015 25.4301C43.9015 25.0179 44.2497 24.6829 44.6774 24.6829C45.1055 24.6829 45.4537 25.0179 45.4537 25.4301C45.4537 25.8421 45.1055 26.1774 44.6774 26.1774Z" fill="white"/>
</g>
<defs>
<clipPath id="clip0">
<rect width="35" height="33.7037" fill="white" transform="translate(17.3789 18.3438)"/>
</clipPath>
</defs>
</svg>
