<svg xmlns="http://www.w3.org/2000/svg" width="171" height="70" viewBox="0 0 171 70" fill="none"><g id="Frame"><g id="logo-color"><path id="Vector" d="M3.99219 61.4389V35.2518L14.9599 43.3094V47.3381L5.98633 41.295V60.4317L5.48779 61.4389H3.99219Z" fill="#FF0000"></path></g><g id="logo-color_2"><path id="Vector_2" d="M51.8505 68.9928H46.3667L42.3784 63.4532V42.8058L31.9092 49.8561V13.5971V13.0935V10.0719L24.9297 17.1223V12.0863L35.8975 0V44.3165L45.8681 37.2662V61.4389L51.8505 67.482V68.9928Z" fill="#FF0000"></path></g><path id="Vector_3" d="M14.9589 49.8561L5.98534 43.3094V60.4317L1 67.482V68.4892H46.3666L42.3783 63.4533V42.3022L31.9091 49.8561V13.0935L23.9326 22.1583H22.9355L14.9589 13.0935V49.8561Z" stroke="white"></path><path id="Vector_4" d="M4.98633 68.4892V62.446L2.99219 64.964V68.4892H4.98633Z" stroke="white"></path><path id="Vector_5" d="M7.98047 44.8201V68.4892H10.9716V47.3381L7.98047 44.8201Z" stroke="white"></path><path id="Vector_6" d="M22.9336 22.1583V68.4892H23.9307V22.1583H22.9336Z" stroke="white"></path><g id="logo-color_3"><path id="Vector_7" d="M22.935 60.9352L15.457 68.4892H30.9116L23.9321 60.9352H22.935Z" fill="#FF0000" stroke="white"></path></g><path id="Vector_8" d="M35.8984 47.0863V68.4892H37.8926V45.8273L35.8984 47.0863Z" stroke="white"></path><path id="Vector_9" d="M16.9531 66.9784V15.6115L17.9502 16.6187V65.9712L16.9531 66.9784Z" stroke="white"></path><path id="Vector_10" d="M28.918 65.9712V16.8705L29.9151 16.1151V67.1043L28.918 65.9712Z" stroke="white"></path><g id="logo-name"><path id="Vector_11" d="M62.7129 33.8626H65.8067V39.3821C65.8067 39.9681 65.7598 41.14 65.6661 42.8978H65.7364L70.8604 33.8626H75.1495V46.7122H72.0733V41.3333C72.0733 40.5189 72.126 39.3001 72.2315 37.6771H72.1612L66.9932 46.7122H62.7129V33.8626ZM83.5342 46.7122L80.9063 37.4573H80.8272C80.9502 39.0335 81.0118 40.2581 81.0118 41.1312V46.7122H77.9356V33.8626H82.5586L85.2393 42.9857H85.3096L87.9376 33.8626H92.5694V46.7122H89.379V41.0784C89.379 40.7855 89.3819 40.4603 89.3877 40.1028C89.3995 39.7454 89.4405 38.8694 89.5108 37.4749H89.4317L86.8389 46.7122H83.5342ZM105.868 46.7122H102.369V36.7015H98.8272V46.7122H95.3379V33.8626H105.868V46.7122ZM116.274 46.7122H108.645V33.8626H116.274V36.6487H112.117V38.6702H115.966V41.4564H112.117V43.8821H116.274V46.7122ZM127.849 37.9495C127.849 39.3851 127.424 40.4954 126.575 41.2806C125.731 42.0599 124.53 42.4495 122.971 42.4495H121.995V46.7122H118.524V33.8626H122.971C124.594 33.8626 125.813 34.2171 126.627 34.9261C127.442 35.6351 127.849 36.6429 127.849 37.9495ZM121.995 39.6194H122.628C123.15 39.6194 123.563 39.473 123.868 39.18C124.178 38.887 124.333 38.4827 124.333 37.9671C124.333 37.0999 123.853 36.6663 122.892 36.6663H121.995V39.6194ZM129.897 33.8626H132.991V39.3821C132.991 39.9681 132.944 41.14 132.85 42.8978H132.92L138.044 33.8626H142.333V46.7122H139.257V41.3333C139.257 40.5189 139.31 39.3001 139.415 37.6771H139.345L134.177 46.7122H129.897V33.8626ZM153.003 46.7122L152.37 44.304H148.196L147.545 46.7122H143.731L147.923 33.8099H152.555L156.8 46.7122H153.003ZM151.65 41.4564L151.096 39.347C150.967 38.8782 150.809 38.2718 150.621 37.5276C150.44 36.7835 150.32 36.2503 150.261 35.928C150.208 36.2269 150.103 36.7191 149.945 37.4046C149.792 38.0901 149.45 39.4407 148.916 41.4564H151.65ZM169.14 46.7122H165.651V36.7015H163.199C163.064 38.1605 162.882 39.6458 162.654 41.1575C162.431 42.6693 162.217 43.7298 162.012 44.3392C161.807 44.9485 161.546 45.4349 161.23 45.7982C160.919 46.1556 160.533 46.428 160.07 46.6155C159.607 46.7972 159.047 46.888 158.391 46.888C157.893 46.888 157.439 46.8235 157.029 46.6946V44.014C157.38 44.1312 157.667 44.1898 157.89 44.1898C158.195 44.1898 158.426 44.0638 158.584 43.8118C158.748 43.554 158.898 43.1204 159.033 42.511C159.167 41.8958 159.355 40.7591 159.595 39.1009C159.835 37.4368 160.058 35.6907 160.263 33.8626H169.14V46.7122ZM68.4346 56.5257C67.6085 56.5257 66.9639 56.8655 66.501 57.5452C66.0381 58.2191 65.8067 59.1507 65.8067 60.3401C65.8067 62.8128 66.7471 64.0491 68.628 64.0491C69.1963 64.0491 69.7471 63.97 70.2803 63.8118C70.8135 63.6536 71.3497 63.4632 71.8887 63.2405V66.1761C70.8165 66.6507 69.6036 66.888 68.2501 66.888C66.3106 66.888 64.8223 66.3255 63.7852 65.2005C62.754 64.0755 62.2383 62.4495 62.2383 60.3226C62.2383 58.9925 62.4874 57.8235 62.9854 56.8157C63.4893 55.8079 64.21 55.0345 65.1475 54.4954C66.0909 53.9505 67.1983 53.678 68.4698 53.678C69.8585 53.678 71.1856 53.9798 72.4512 54.5833L71.3877 57.3167C70.9131 57.0941 70.4385 56.9066 69.9639 56.7542C69.4893 56.6019 68.9795 56.5257 68.4346 56.5257ZM80.0713 66.7122H76.5997V56.7015H73.462V53.8626H83.2002V56.7015H80.0713V66.7122ZM94.3624 57.9495C94.3624 59.3851 93.9376 60.4954 93.0879 61.2806C92.2442 62.0599 91.043 62.4495 89.4844 62.4495H88.5088V66.7122H85.0372V53.8626H89.4844C91.1075 53.8626 92.3262 54.2171 93.1407 54.9261C93.9551 55.6351 94.3624 56.6429 94.3624 57.9495ZM88.5088 59.6194H89.1417C89.6631 59.6194 90.0762 59.473 90.3809 59.18C90.6915 58.887 90.8467 58.4827 90.8467 57.9671C90.8467 57.0999 90.3663 56.6663 89.4053 56.6663H88.5088V59.6194ZM108.434 60.2698C108.434 62.4319 107.904 64.0755 106.843 65.2005C105.783 66.3255 104.23 66.888 102.185 66.888C100.169 66.888 98.6221 66.3226 97.544 65.1917C96.4717 64.0609 95.9356 62.4144 95.9356 60.2523C95.9356 58.1136 96.4688 56.4818 97.5352 55.3568C98.6075 54.2259 100.163 53.6605 102.203 53.6605C104.247 53.6605 105.797 54.22 106.852 55.3392C107.907 56.4583 108.434 58.1019 108.434 60.2698ZM99.5918 60.2698C99.5918 62.7542 100.456 63.9964 102.185 63.9964C103.064 63.9964 103.714 63.6946 104.136 63.0911C104.564 62.4876 104.778 61.5472 104.778 60.2698C104.778 58.9866 104.561 58.0403 104.127 57.431C103.7 56.8157 103.058 56.5081 102.203 56.5081C100.462 56.5081 99.5918 57.762 99.5918 60.2698ZM110.754 53.8626H113.848V59.3821C113.848 59.9681 113.801 61.14 113.707 62.8978H113.778L118.902 53.8626H123.191V66.7122H120.115V61.3333C120.115 60.5189 120.167 59.3001 120.273 57.6771H120.203L115.035 66.7122H110.754V53.8626ZM116.942 52.8343C115.541 52.8343 114.493 52.5618 113.795 52.0169C113.104 51.472 112.717 50.6282 112.635 49.4857H115.5C115.53 50.0599 115.656 50.4759 115.878 50.7337C116.101 50.9915 116.455 51.1204 116.942 51.1204C117.821 51.1204 118.301 50.5755 118.383 49.4857H121.292C121.052 51.7181 119.602 52.8343 116.942 52.8343Z" fill="white"></path></g></g></svg>